<?xml version="1.0" encoding="UTF-8" standalone="no"?>
<!-- Generator: Adobe Illustrator 21.0.0, SVG Export Plug-In . SVG Version: 6.00 Build 0)  -->

<svg
   xmlns:dc="http://purl.org/dc/elements/1.1/"
   xmlns:cc="http://creativecommons.org/ns#"
   xmlns:rdf="http://www.w3.org/1999/02/22-rdf-syntax-ns#"
   xmlns:svg="http://www.w3.org/2000/svg"
   xmlns="http://www.w3.org/2000/svg"
   xmlns:sodipodi="http://sodipodi.sourceforge.net/DTD/sodipodi-0.dtd"
   xmlns:inkscape="http://www.inkscape.org/namespaces/inkscape"
   version="1.1"
   id="图层_1"
   x="0px"
   y="0px"
   viewBox="0 0 396.9 510.2"
   style="enable-background:new 0 0 396.9 510.2;"
   xml:space="preserve"
   inkscape:version="0.91 r13725"
   sodipodi:docname="JohnstonSpecimenEN.svg"><metadata
     id="metadata227"><rdf:RDF><cc:Work
         rdf:about=""><dc:format>image/svg+xml</dc:format><dc:type
           rdf:resource="http://purl.org/dc/dcmitype/StillImage" /></cc:Work></rdf:RDF></metadata><defs
     id="defs225" /><sodipodi:namedview
     pagecolor="#ffffff"
     bordercolor="#666666"
     borderopacity="1"
     objecttolerance="10"
     gridtolerance="10"
     guidetolerance="10"
     inkscape:pageopacity="0"
     inkscape:pageshadow="2"
     inkscape:window-width="1320"
     inkscape:window-height="729"
     id="namedview223"
     showgrid="false"
     inkscape:zoom="1.8502548"
     inkscape:cx="210.35662"
     inkscape:cy="391.36462"
     inkscape:window-x="0"
     inkscape:window-y="0"
     inkscape:window-maximized="0"
     inkscape:current-layer="图层_1" /><style
     type="text/css"
     id="style3">
	.st0{fill:#FFFFFF;}
	.st1{fill:#1A2A7E;}
	.st2{fill:#D5291E;}
	.st3{fill:#CACACA;}
	.st4{fill:#040000;}
</style><g
     id="g3724"
     transform="matrix(0.73502064,0,0,0.73502064,5.6174737,30.769427)"><rect
       style="fill:#000000"
       id="rect29"
       height="31.821638"
       width="6.4009042"
       class="st0"
       y="96.888252"
       x="209.45697" /><polygon
       transform="matrix(1.8288298,0,0,1.8288298,-272.25679,-607.39413)"
       style="fill:#000000"
       id="polygon31"
       points="267.6,381.4 265.2,379 262.7,381.4 265.2,383.9 "
       class="st0" /><polygon
       transform="matrix(1.8288298,0,0,1.8288298,-272.25679,-607.39413)"
       style="fill:#000000"
       id="polygon33"
       points="284.7,381.4 282.3,379 279.8,381.4 282.3,383.9 "
       class="st0" /><path
       style="fill:#000000"
       inkscape:connector-curvature="0"
       id="path35"
       d="m 244.7534,138.03691 c 1.64595,-2.01171 2.37748,-4.75496 2.37748,-8.41262 l 0,-32.918931 -6.21802,0 0,32.004521 c 0,2.19459 -0.36577,3.84054 -0.91441,4.75496 -0.54865,0.91441 -1.64595,1.46306 -3.10902,1.46306 -0.91441,0 -1.64594,-0.18288 -2.56036,-0.36577 l 0,5.85226 c 0.91442,0.18288 2.01172,0.36576 3.47478,0.36576 2.92613,0.18289 5.30361,-0.73153 6.94955,-2.74324 z"
       class="st0" /></g><g
     id="g3714"
     transform="translate(-18.375848,23.240043)"><path
       style="fill:#040000"
       inkscape:connector-curvature="0"
       id="path201"
       d="m 100.69407,43.6 c 0,3.7 -1.300001,5.6 -3.900001,5.6 -1.7,0 -3,-1 -3.8,-3.1 l -4.9,2.6 c 1.8,4 4.7,6 8.7,6 3.1,0 5.500001,-1 7.200001,-2.9 1.8,-1.9 2.6,-4.5 2.6,-7.7 l 0,-22 -6,0 0,21.5 z"
       class="st4" /><path
       style="fill:#040000"
       inkscape:connector-curvature="0"
       id="path203"
       d="m 125.29407,30.3 c -3.5,0 -6.4,1.2 -8.8,3.5 -2.4,2.3 -3.6,5.2 -3.6,8.7 0,3.5 1.2,6.3 3.6,8.7 2.4,2.3 5.3,3.5 8.8,3.5 3.5,0 6.4,-1.2 8.8,-3.5 2.4,-2.3 3.6,-5.2 3.6,-8.7 0,-3.5 -1.2,-6.3 -3.6,-8.7 -2.4,-2.3 -5.3,-3.5 -8.8,-3.5 z m 4.9,17.2 c -1.3,1.3 -2.9,2 -4.9,2 -1.9,0 -3.5,-0.7 -4.8,-2 -1.3,-1.3 -1.9,-3 -1.9,-5 0,-2 0.6,-3.7 1.9,-5 1.3,-1.3 2.9,-2 4.8,-2 2,0 3.6,0.7 4.9,2 1.3,1.3 1.9,3 1.9,5 0,2 -0.6,3.7 -1.9,5 z"
       class="st4" /><path
       style="fill:#040000"
       inkscape:connector-curvature="0"
       id="path205"
       d="m 155.49407,30.3 c -2.6,0 -4.7,0.6 -6.4,1.9 l 0,-10.1 -5.5,0 0,32 5.5,0 0,-17.1 c 1.6,-1.1 3.4,-1.7 5.3,-1.7 3.8,0 5.7,2 5.7,6 l 0,12.8 5.5,0 0,-13.2 c 0,-3.3 -0.9,-5.9 -2.6,-7.8 -1.7,-1.8 -4.2,-2.8 -7.5,-2.8 z"
       class="st4" /><path
       style="fill:#040000"
       inkscape:connector-curvature="0"
       id="path207"
       d="m 184.49407,30.3 c -2.7,0 -4.9,0.7 -6.6,2 l 0,-1.5 -5.3,0 0,23.2 5.5,0 0,-17 c 1.6,-1.1 3.4,-1.7 5.3,-1.7 3.8,0 5.7,2 5.7,6 l 0,12.8 5.5,0 0,-13.2 c 0,-3.3 -0.9,-5.9 -2.6,-7.8 -1.7,-1.8 -4.2,-2.8 -7.5,-2.8 z"
       class="st4" /><path
       style="fill:#040000"
       inkscape:connector-curvature="0"
       id="path209"
       d="m 216.59407,42.1 c -1.4,-1.2 -3.6,-2 -6.6,-2.6 -1.6,-0.3 -2.7,-0.6 -3.3,-1 -0.6,-0.3 -0.9,-0.9 -0.9,-1.6 0,-1.3 1.2,-1.9 3.6,-1.9 2.8,0 5.3,0.7 7.4,2.2 l 0,-5.3 c -2.3,-1 -4.8,-1.5 -7.5,-1.5 -2.7,0 -4.9,0.7 -6.6,2 -1.7,1.3 -2.5,3 -2.5,5 0,2 0.6,3.5 1.9,4.6 1.3,1.1 3.5,1.9 6.5,2.4 1.6,0.3 2.8,0.7 3.4,1.2 0.7,0.5 1,1.1 1,1.9 0,1.6 -1.4,2.4 -4.2,2.4 -3.2,0 -6.1,-1 -8.7,-3.1 l 0,5.8 c 2.8,1.3 5.7,2 8.7,2 3.1,0 5.5,-0.7 7.2,-2 1.7,-1.3 2.5,-3.1 2.5,-5.4 0.3,-2.2 -0.5,-4 -1.9,-5.1 z"
       class="st4" /><path
       style="fill:#040000"
       inkscape:connector-curvature="0"
       id="path211"
       d="m 230.59407,45.7 0,-10.1 8.6,0 0,-4.8 -8.6,0 0,-5.5 -5.6,0 0,5.5 -3.6,0 0,4.8 3.6,0 0,10.4 c 0,2.8 0.7,4.9 2.2,6.4 1.4,1.5 3.5,2.3 6.2,2.3 2.1,0 4.1,-0.4 6,-1.1 l 0,-5.1 c -1.7,0.9 -3.3,1.3 -4.8,1.3 -2.7,-0.1 -4,-1.5 -4,-4.1 z"
       class="st4" /><path
       style="fill:#040000"
       inkscape:connector-curvature="0"
       id="path213"
       d="m 255.19407,30.3 c -3.5,0 -6.4,1.2 -8.8,3.5 -2.4,2.3 -3.6,5.2 -3.6,8.7 0,3.5 1.2,6.3 3.6,8.7 2.4,2.3 5.3,3.5 8.8,3.5 3.5,0 6.4,-1.2 8.8,-3.5 2.4,-2.3 3.6,-5.2 3.6,-8.7 0,-3.5 -1.2,-6.3 -3.6,-8.7 -2.4,-2.3 -5.3,-3.5 -8.8,-3.5 z m 4.9,17.2 c -1.3,1.3 -2.9,2 -4.9,2 -1.9,0 -3.5,-0.7 -4.8,-2 -1.3,-1.3 -1.9,-3 -1.9,-5 0,-2 0.6,-3.7 1.9,-5 1.3,-1.3 2.9,-2 4.8,-2 2,0 3.6,0.7 4.9,2 1.3,1.3 1.9,3 1.9,5 0,2 -0.6,3.7 -1.9,5 z"
       class="st4" /><path
       style="fill:#040000"
       inkscape:connector-curvature="0"
       id="path215"
       d="m 285.39407,30.3 c -2.7,0 -4.9,0.7 -6.6,2 l 0,-1.5 -5.3,0 0,23.2 5.5,0 0,-17 c 1.6,-1.1 3.4,-1.7 5.3,-1.7 3.8,0 5.7,2 5.7,6 l 0,12.8 5.5,0 0,-13.2 c 0,-3.3 -0.9,-5.9 -2.6,-7.8 -1.8,-1.8 -4.3,-2.8 -7.5,-2.8 z"
       class="st4" /></g></svg>